<svg width="145" height="47" viewBox="0 4.85 145 47" fill="none" xmlns="http://www.w3.org/2000/svg">
<path d="M48.7102 46.5284C46.1307 46.5284 43.9091 45.9773 42.0455 44.875C40.1932 43.7614 38.7614 42.1989 37.75 40.1875C36.75 38.1648 36.25 35.7955 36.25 33.0795C36.25 30.3977 36.75 28.0341 37.75 25.9886C38.7614 23.9432 40.1705 22.3466 41.9773 21.1989C43.7955 20.0511 45.9205 19.4773 48.3523 19.4773C49.8295 19.4773 51.2614 19.7216 52.6477 20.2102C54.0341 20.6989 55.2784 21.4659 56.3807 22.5114C57.483 23.5568 58.3523 24.9148 58.9886 26.5852C59.625 28.2443 59.9432 30.2614 59.9432 32.6364V34.4432H39.1307V30.625H54.9489C54.9489 29.2841 54.6761 28.0966 54.1307 27.0625C53.5852 26.017 52.8182 25.1932 51.8295 24.5909C50.8523 23.9886 49.7045 23.6875 48.3864 23.6875C46.9545 23.6875 45.7045 24.0398 44.6364 24.7443C43.5795 25.4375 42.7614 26.3466 42.1818 27.4716C41.6136 28.5852 41.3295 29.7955 41.3295 31.1023V34.0852C41.3295 35.8352 41.6364 37.3239 42.25 38.5511C42.875 39.7784 43.7443 40.7159 44.858 41.3636C45.9716 42 47.2727 42.3182 48.7614 42.3182C49.7273 42.3182 50.608 42.1818 51.4034 41.9091C52.1989 41.625 52.8864 41.2045 53.4659 40.6477C54.0455 40.0909 54.4886 39.4034 54.7955 38.5852L59.6193 39.4545C59.233 40.875 58.5398 42.1193 57.5398 43.1875C56.5511 44.2443 55.3068 45.0682 53.8068 45.6591C52.3182 46.2386 50.6193 46.5284 48.7102 46.5284ZM69.0114 19.8182L74.7898 30.0114L80.6193 19.8182H86.1932L78.0284 32.9091L86.2614 46H80.6875L74.7898 36.2159L68.9091 46H63.3182L71.4659 32.9091L63.4205 19.8182H69.0114ZM91.4261 46V19.8182H96.5227V46H91.4261ZM94 15.7784C93.1136 15.7784 92.3523 15.483 91.7159 14.892C91.0909 14.2898 90.7784 13.5739 90.7784 12.7443C90.7784 11.9034 91.0909 11.1875 91.7159 10.5966C92.3523 9.99432 93.1136 9.69318 94 9.69318C94.8864 9.69318 95.642 9.99432 96.267 10.5966C96.9034 11.1875 97.2216 11.9034 97.2216 12.7443C97.2216 13.5739 96.9034 14.2898 96.267 14.892C95.642 15.483 94.8864 15.7784 94 15.7784ZM122.999 26.2102L118.379 27.0284C118.186 26.4375 117.879 25.875 117.459 25.3409C117.05 24.8068 116.493 24.3693 115.788 24.0284C115.084 23.6875 114.203 23.517 113.146 23.517C111.703 23.517 110.499 23.8409 109.533 24.4886C108.567 25.125 108.084 25.9489 108.084 26.9602C108.084 27.8352 108.408 28.5398 109.055 29.0739C109.703 29.608 110.749 30.0455 112.192 30.3864L116.351 31.3409C118.76 31.8977 120.555 32.7557 121.737 33.9148C122.919 35.0739 123.51 36.5795 123.51 38.4318C123.51 40 123.055 41.3977 122.146 42.625C121.249 43.8409 119.993 44.7955 118.379 45.4886C116.777 46.1818 114.919 46.5284 112.805 46.5284C109.874 46.5284 107.482 45.9034 105.629 44.6534C103.777 43.392 102.641 41.6023 102.22 39.2841L107.146 38.5341C107.453 39.8182 108.084 40.7898 109.038 41.4489C109.993 42.0966 111.237 42.4205 112.771 42.4205C114.442 42.4205 115.777 42.0739 116.777 41.3807C117.777 40.6761 118.277 39.8182 118.277 38.8068C118.277 37.9886 117.97 37.3011 117.357 36.7443C116.754 36.1875 115.828 35.767 114.578 35.483L110.146 34.5114C107.703 33.9545 105.896 33.0682 104.726 31.8523C103.567 30.6364 102.987 29.0966 102.987 27.233C102.987 25.6875 103.419 24.3352 104.283 23.1761C105.146 22.017 106.339 21.1136 107.862 20.4659C109.385 19.8068 111.129 19.4773 113.095 19.4773C115.925 19.4773 118.152 20.0909 119.777 21.3182C121.402 22.5341 122.476 24.1648 122.999 26.2102ZM141.335 19.8182V23.9091H127.034V19.8182H141.335ZM130.869 13.5455H135.966V38.3125C135.966 39.3011 136.114 40.0455 136.409 40.5455C136.705 41.0341 137.085 41.3693 137.551 41.5511C138.028 41.7216 138.545 41.8068 139.102 41.8068C139.511 41.8068 139.869 41.7784 140.176 41.7216C140.483 41.6648 140.722 41.6193 140.892 41.5852L141.812 45.7955C141.517 45.9091 141.097 46.0227 140.551 46.1364C140.006 46.2614 139.324 46.3295 138.506 46.3409C137.165 46.3636 135.915 46.125 134.756 45.625C133.597 45.125 132.659 44.3523 131.943 43.3068C131.227 42.2614 130.869 40.9489 130.869 39.3693V13.5455Z" fill="black"/>
<path d="M14.5 18C22.5081 18 29 24.4919 29 32.5C29 40.5081 22.5081 47 14.5 47C6.49187 47 0 40.5081 0 32.5C0 24.4919 6.49187 18 14.5 18ZM14.5 22.1426C8.77993 22.1426 4.14258 26.7799 4.14258 32.5C4.14258 38.2201 8.77993 42.8574 14.5 42.8574C20.2201 42.8574 24.8574 38.2201 24.8574 32.5C24.8574 26.7799 20.2201 22.1426 14.5 22.1426Z" fill="#21C818"/>
</svg>
